<svg version="1.0" xmlns="http://www.w3.org/2000/svg" width="180" height="180"
     viewBox="0 0 180 180">
  <defs>
    <linearGradient id="grad1" x1="0%" y1="100%" x2="100%" y2="0%">
      <stop offset="0%" style="stop-color:#6f7def;stop-opacity:1" />
      <stop offset="100%" style="stop-color:#ed9ffe;stop-opacity:1" />
    </linearGradient>
  </defs>
  <rect width="180" height="180" fill="url(#grad1)"/>

  <g transform="translate(0,180) scale(0.1,-0.1)"
     fill="#000000" stroke="none">
    <path d="M414 1506 c-128 -60 -181 -210 -118 -341 30 -65 77 -107 146 -129 63
-20 105 -20 164 0 l47 16 361 -361 c318 -317 365 -361 392 -361 38 0 64 27 64
65 0 24 -38 67 -237 267 l-238 238 77 77 77 77 43 -15 c171 -57 338 60 338
237 0 105 -52 187 -145 230 -128 60 -285 -2 -340 -133 -19 -45 -19 -143 0
-189 l14 -35 -78 -78 -79 -79 -77 78 -76 77 16 58 c62 210 -152 394 -351 301z
m192 -139 c64 -58 55 -152 -19 -198 -77 -48 -187 11 -187 101 0 81 47 129 128
130 34 0 49 -6 78 -33z m759 0 c43 -43 53 -92 29 -142 -46 -98 -176 -100 -225
-3 -27 53 -19 100 26 145 29 29 39 33 85 33 46 0 56 -4 85 -33z"/>
    <path d="M700 783 c-8 -3 -95 -85 -192 -182 -155 -153 -178 -180 -178 -207 0
-39 27 -64 70 -64 30 0 51 18 211 183 194 198 205 215 153 256 -27 21 -37 24
-64 14z"/>
  </g>

  <circle cx="128" cy="52" r="13" fill="#ffffff"/>
  <circle cx="52" cy="52" r="13" fill="#ffffff"/>
</svg>
