<?xml version="1.0" standalone="no"?>
<!DOCTYPE svg PUBLIC "-//W3C//DTD SVG 20010904//EN"
 "http://www.w3.org/TR/2001/REC-SVG-20010904/DTD/svg10.dtd">
<svg version="1.0" xmlns="http://www.w3.org/2000/svg"
 width="700.000000pt" height="700.000000pt" viewBox="0 0 700.000000 700.000000"
 preserveAspectRatio="xMidYMid meet">
<metadata>
Created by MiracleHorizon
</metadata>
<g transform="translate(0.000000,700.000000) scale(0.100000,-0.100000)"
fill="#000000" stroke="none">
<path d="M3199 6958 c-77 -291 -365 -829 -578 -1084 -14 -17 -44 -52 -66 -80
-148 -181 -368 -390 -585 -553 -170 -128 -336 -230 -589 -361 -124 -64 -259
-138 -300 -164 -371 -239 -672 -576 -872 -976 -81 -161 -216 -521 -203 -541 3
-5 21 -11 42 -15 96 -17 462 -181 676 -302 60 -34 110 -62 112 -62 2 0 15 21
30 48 57 98 196 301 280 407 111 140 378 407 513 514 95 75 239 180 282 206
10 6 53 32 96 59 43 27 166 94 273 149 309 157 395 207 565 320 335 224 617
477 895 803 52 61 160 203 237 314 109 156 200 311 305 520 l88 175 -67 64
c-196 184 -432 339 -683 446 -67 29 -422 155 -436 155 -2 0 -8 -19 -15 -42z"/>
<path d="M4815 5527 c-204 -357 -474 -707 -784 -1017 -396 -395 -801 -683
-1342 -954 -338 -170 -498 -279 -724 -496 -72 -68 -111 -110 -196 -206 -93
-106 -226 -302 -302 -444 l-46 -85 83 -85 c91 -94 228 -255 278 -328 17 -26
34 -49 38 -52 37 -32 317 -516 321 -557 0 -5 5 -14 11 -20 8 -10 37 41 112
190 56 111 113 218 126 239 14 20 41 62 60 94 52 86 192 276 279 379 90 107
289 308 381 385 36 30 67 57 70 61 29 33 426 309 445 309 3 0 22 11 43 23 20
13 84 47 142 76 58 29 114 57 124 63 11 6 63 33 115 61 53 27 120 65 149 83
29 19 55 34 57 34 23 0 423 284 526 374 19 17 64 56 98 86 89 77 305 298 397
405 99 117 173 214 266 350 l76 111 -105 109 c-243 253 -425 505 -575 792
l-64 122 -59 -102z"/>
<path d="M6150 4093 c-234 -341 -563 -705 -880 -973 -124 -104 -385 -298 -496
-367 -174 -109 -330 -197 -520 -294 -251 -127 -366 -195 -496 -291 -511 -377
-874 -912 -1043 -1535 l-17 -62 38 -33 c20 -18 42 -38 48 -43 6 -6 52 -40 101
-75 240 -169 435 -266 755 -371 l145 -48 12 27 c7 15 12 35 13 45 1 58 179
451 288 637 55 95 189 301 201 310 4 3 18 21 31 40 83 121 278 336 436 480 98
90 124 112 234 196 199 153 363 254 630 389 332 167 526 307 746 535 264 275
434 567 570 975 23 72 46 137 49 146 5 14 -9 22 -77 44 -218 72 -418 167 -679
324 l-36 21 -53 -77z"/>
</g>
</svg>
